M48
;Layer_Color=9474304
;FILE_FORMAT=4:2
METRIC,LZ
;TYPE=PLATED
T1F00S00C0.90
T2F00S00C1.00
T3F00S00C1.30
;TYPE=NON_PLATED
T4F00S00C3.20
T5F00S00C5.00
%
T01
X-001789Y-001488
X-001969Y-001242
X-000762Y-00127
Y-001524
Y-001778
X-000508
Y-001524
Y-00127
X000508
X000762
Y-001524
Y-001778
X000508
Y-001524
X000573Y-002256
X-000573
X-000863Y-002162
X000863
X001789Y-001488
X001969Y-001242
X002322Y-000152
Y000152
X001969Y001242
X001789Y001488
X000863Y002162
X000573Y002256
X000762Y001778
Y001524
Y00127
Y001016
Y000762
Y000508
Y000254
Y0
Y-000254
Y-000508
Y-000762
Y-001016
X000508
Y-000762
Y-000508
Y-000254
Y0
Y000254
Y000508
X-000508
X-000762
Y000254
Y0
Y-000254
Y-000508
Y-000762
Y-001016
X-000508
Y-000762
Y-000508
Y-000254
Y0
Y000254
X-000762Y000762
Y001016
Y00127
Y001524
Y001778
X-000863Y002162
X-000573Y002256
X-001789Y001488
X-001969Y001242
X-002323Y000152
Y-000152
T02
X00127Y001397
X001333Y001842
X-001426Y000325
X-001876
Y-000325
X-001426
T03
X001524Y-0005
X001274Y0005
X001774
T04
X00135Y-0019
X-00135Y0019
T05
X-0Y0023
M30
