%FSLAX42Y42*%
%MOMM*%
G71*
G01*
G75*
G04 Layer_Color=65535*
%ADD10C,0.50*%
%ADD11C,1.00*%
G04:AMPARAMS|DCode=12|XSize=5mm|YSize=2.5mm|CornerRadius=0.63mm|HoleSize=0mm|Usage=FLASHONLY|Rotation=0.000|XOffset=0mm|YOffset=0mm|HoleType=Round|Shape=RoundedRectangle|*
%AMROUNDEDRECTD12*
21,1,5.00,1.25,0,0,0.0*
21,1,3.75,2.50,0,0,0.0*
1,1,1.25,1.88,-0.63*
1,1,1.25,-1.88,-0.63*
1,1,1.25,-1.88,0.63*
1,1,1.25,1.88,0.63*
%
%ADD12ROUNDEDRECTD12*%
%ADD13C,2.00*%
%ADD14C,1.60*%
%ADD15R,1.60X1.60*%
%ADD16C,2.30*%
%ADD17C,0.20*%
G04:AMPARAMS|DCode=18|XSize=5.1mm|YSize=2.6mm|CornerRadius=0.68mm|HoleSize=0mm|Usage=FLASHONLY|Rotation=0.000|XOffset=0mm|YOffset=0mm|HoleType=Round|Shape=RoundedRectangle|*
%AMROUNDEDRECTD18*
21,1,5.10,1.25,0,0,0.0*
21,1,3.75,2.60,0,0,0.0*
1,1,1.35,1.88,-0.63*
1,1,1.35,-1.88,-0.63*
1,1,1.35,-1.88,0.63*
1,1,1.35,1.88,0.63*
%
%ADD18ROUNDEDRECTD18*%
%ADD19C,2.10*%
%ADD20C,1.70*%
%ADD21R,1.70X1.70*%
%ADD22C,2.40*%
%ADD23C,0.25*%
%ADD24C,0.10*%
%ADD25C,0.15*%
D24*
X2650Y0D02*
G03*
X2650Y0I-2650J0D01*
G01*
X25Y2650D02*
X3010D01*
X25Y-2650D02*
X3010D01*
X2984Y660D02*
Y2650D01*
Y-2650D02*
Y-741D01*
X2934Y2498D02*
X2984Y2650D01*
X3035Y2498D01*
X2984Y-2650D02*
X3035Y-2498D01*
X2934D02*
X2984Y-2650D01*
D25*
X3101Y-675D02*
Y-625D01*
X3076Y-599D01*
X3025D01*
X3000Y-625D01*
Y-675D01*
X3025Y-701D01*
X3076D01*
X3101Y-675D01*
Y-701D02*
X3000Y-599D01*
X2949Y-295D02*
Y-396D01*
X3025D01*
X3000Y-345D01*
Y-320D01*
X3025Y-295D01*
X3076D01*
X3101Y-320D01*
Y-371D01*
X3076Y-396D01*
X2974Y-244D02*
X2949Y-218D01*
Y-168D01*
X2974Y-142D01*
X3000D01*
X3025Y-168D01*
Y-193D01*
Y-168D01*
X3051Y-142D01*
X3076D01*
X3101Y-168D01*
Y-218D01*
X3076Y-244D01*
X3127Y-66D02*
X3101Y-41D01*
X3076D01*
Y-66D01*
X3101D01*
Y-41D01*
X3127Y-66D01*
X3152Y-91D01*
X2974Y61D02*
X2949Y86D01*
Y137D01*
X2974Y162D01*
X3076D01*
X3101Y137D01*
Y86D01*
X3076Y61D01*
X2974D01*
Y213D02*
X2949Y239D01*
Y289D01*
X2974Y315D01*
X3076D01*
X3101Y289D01*
Y239D01*
X3076Y213D01*
X2974D01*
X3101Y366D02*
X3000D01*
Y391D01*
X3025Y416D01*
X3101D01*
X3025D01*
X3000Y442D01*
X3025Y467D01*
X3101D01*
Y518D02*
X3000D01*
Y543D01*
X3025Y569D01*
X3101D01*
X3025D01*
X3000Y594D01*
X3025Y620D01*
X3101D01*
M02*
