%FSLAX42Y42*%
%MOMM*%
G71*
G01*
G75*
G04 Layer_Physical_Order=2*
G04 Layer_Color=65280*
%ADD10C,0.50*%
%ADD11C,1.00*%
G04:AMPARAMS|DCode=12|XSize=5mm|YSize=2.5mm|CornerRadius=0.63mm|HoleSize=0mm|Usage=FLASHONLY|Rotation=0.000|XOffset=0mm|YOffset=0mm|HoleType=Round|Shape=RoundedRectangle|*
%AMROUNDEDRECTD12*
21,1,5.00,1.25,0,0,0.0*
21,1,3.75,2.50,0,0,0.0*
1,1,1.25,1.88,-0.63*
1,1,1.25,-1.88,-0.63*
1,1,1.25,-1.88,0.63*
1,1,1.25,1.88,0.63*
%
%ADD12ROUNDEDRECTD12*%
%ADD13C,2.00*%
%ADD14C,1.60*%
%ADD15R,1.60X1.60*%
%ADD16C,2.30*%
D10*
X40Y1960D02*
X230Y1770D01*
Y24D02*
Y1770D01*
Y24D02*
X508Y-254D01*
X340Y1890D02*
X573Y2123D01*
X340Y168D02*
Y1890D01*
Y168D02*
X508Y0D01*
X-573Y-2256D02*
X54D01*
X280Y-2030D01*
Y-1498D01*
X508Y-1270D01*
X-661Y1960D02*
X40D01*
X-863Y2162D02*
X-661Y1960D01*
X1270Y504D02*
X1274Y500D01*
X1270Y504D02*
Y1397D01*
X-1185Y1016D02*
X-762D01*
X-1876Y325D02*
X-1185Y1016D01*
X-1876Y-325D02*
Y325D01*
X573Y2123D02*
Y2256D01*
X-1426Y325D02*
X-989Y762D01*
X-762D01*
X-1426Y-325D02*
Y325D01*
D11*
X635Y1016D02*
X762D01*
X550Y1101D02*
X635Y1016D01*
X550Y1101D02*
Y1849D01*
X1016Y-1206D02*
Y952D01*
X952Y1016D02*
X1016Y952D01*
X762Y1016D02*
X952D01*
Y-1270D02*
X1016Y-1206D01*
X762Y-1270D02*
X952D01*
X1774Y1047D02*
X1969Y1242D01*
X1774Y500D02*
Y1047D01*
X573Y-2256D02*
Y-2031D01*
X635Y-1968D01*
X889D01*
X930Y-1927D01*
Y-1438D01*
X762Y-1270D02*
X930Y-1438D01*
X-2100Y-1110D02*
Y50D01*
X-2202Y152D02*
X-2100Y50D01*
X-2323Y152D02*
X-2202D01*
X-1700Y1050D02*
Y1399D01*
X-2323Y427D02*
X-1700Y1050D01*
X-2323Y152D02*
Y427D01*
X-1789Y1488D02*
X-1700Y1399D01*
X-2100Y-1110D02*
X-1969Y-1242D01*
X550Y1849D02*
X863Y2162D01*
X1774Y1D02*
Y500D01*
X1927Y-152D02*
X2322D01*
X1774Y1D02*
X1927Y-152D01*
D12*
X1270Y1397D02*
D03*
X1333Y1842D02*
D03*
D13*
X-2323Y-152D02*
D03*
Y152D02*
D03*
X-1969Y-1242D02*
D03*
X-1789Y-1488D02*
D03*
X-573Y-2256D02*
D03*
X-863Y-2162D02*
D03*
X573Y-2256D02*
D03*
X863Y-2162D02*
D03*
X1969Y-1242D02*
D03*
X1789Y-1488D02*
D03*
X2322Y-152D02*
D03*
Y152D02*
D03*
X1789Y1488D02*
D03*
X1969Y1242D02*
D03*
X863Y2162D02*
D03*
X573Y2256D02*
D03*
X-863Y2162D02*
D03*
X-573Y2256D02*
D03*
X-1789Y1488D02*
D03*
X-1969Y1242D02*
D03*
X-1426Y-325D02*
D03*
Y325D02*
D03*
X-1876D02*
D03*
Y-325D02*
D03*
D14*
X762Y1778D02*
D03*
Y1524D02*
D03*
Y1270D02*
D03*
Y1016D02*
D03*
Y762D02*
D03*
Y508D02*
D03*
Y254D02*
D03*
Y0D02*
D03*
Y-254D02*
D03*
Y-508D02*
D03*
Y-762D02*
D03*
Y-1016D02*
D03*
Y-1270D02*
D03*
Y-1524D02*
D03*
Y-1778D02*
D03*
X-762D02*
D03*
Y-1524D02*
D03*
Y-1270D02*
D03*
Y-1016D02*
D03*
Y-762D02*
D03*
Y-508D02*
D03*
Y-254D02*
D03*
Y0D02*
D03*
Y254D02*
D03*
Y508D02*
D03*
Y762D02*
D03*
Y1016D02*
D03*
Y1270D02*
D03*
Y1524D02*
D03*
X-508Y-254D02*
D03*
X508D02*
D03*
Y-508D02*
D03*
X-508D02*
D03*
Y-762D02*
D03*
X508D02*
D03*
Y-1016D02*
D03*
X-508D02*
D03*
Y-1270D02*
D03*
X508D02*
D03*
Y-1524D02*
D03*
X-508D02*
D03*
Y-1778D02*
D03*
X508D02*
D03*
Y508D02*
D03*
X-508D02*
D03*
X508Y0D02*
D03*
X-508D02*
D03*
Y254D02*
D03*
X508D02*
D03*
D15*
X-762Y1778D02*
D03*
D16*
X1274Y500D02*
D03*
X1774D02*
D03*
X1524Y-500D02*
D03*
M02*
