%FSLAX42Y42*%
%MOMM*%
G71*
G01*
G75*
G04 Layer_Color=8388736*
%ADD10C,0.50*%
%ADD11C,1.00*%
G04:AMPARAMS|DCode=12|XSize=5mm|YSize=2.5mm|CornerRadius=0.63mm|HoleSize=0mm|Usage=FLASHONLY|Rotation=0.000|XOffset=0mm|YOffset=0mm|HoleType=Round|Shape=RoundedRectangle|*
%AMROUNDEDRECTD12*
21,1,5.00,1.25,0,0,0.0*
21,1,3.75,2.50,0,0,0.0*
1,1,1.25,1.88,-0.63*
1,1,1.25,-1.88,-0.63*
1,1,1.25,-1.88,0.63*
1,1,1.25,1.88,0.63*
%
%ADD12ROUNDEDRECTD12*%
%ADD13C,2.00*%
%ADD14C,1.60*%
%ADD15R,1.60X1.60*%
%ADD16C,2.30*%
%ADD17C,0.20*%
G04:AMPARAMS|DCode=18|XSize=5.1mm|YSize=2.6mm|CornerRadius=0.68mm|HoleSize=0mm|Usage=FLASHONLY|Rotation=0.000|XOffset=0mm|YOffset=0mm|HoleType=Round|Shape=RoundedRectangle|*
%AMROUNDEDRECTD18*
21,1,5.10,1.25,0,0,0.0*
21,1,3.75,2.60,0,0,0.0*
1,1,1.35,1.88,-0.63*
1,1,1.35,-1.88,-0.63*
1,1,1.35,-1.88,0.63*
1,1,1.35,1.88,0.63*
%
%ADD18ROUNDEDRECTD18*%
%ADD19C,2.10*%
%ADD20C,1.70*%
%ADD21R,1.70X1.70*%
%ADD22C,2.40*%
D18*
X1270Y1397D02*
D03*
X1333Y1842D02*
D03*
D19*
X-2323Y-152D02*
D03*
Y152D02*
D03*
X-1969Y-1242D02*
D03*
X-1789Y-1488D02*
D03*
X-573Y-2256D02*
D03*
X-863Y-2162D02*
D03*
X573Y-2256D02*
D03*
X863Y-2162D02*
D03*
X1969Y-1242D02*
D03*
X1789Y-1488D02*
D03*
X2322Y-152D02*
D03*
Y152D02*
D03*
X1789Y1488D02*
D03*
X1969Y1242D02*
D03*
X863Y2162D02*
D03*
X573Y2256D02*
D03*
X-863Y2162D02*
D03*
X-573Y2256D02*
D03*
X-1789Y1488D02*
D03*
X-1969Y1242D02*
D03*
X-1426Y-325D02*
D03*
Y325D02*
D03*
X-1876D02*
D03*
Y-325D02*
D03*
D20*
X762Y1778D02*
D03*
Y1524D02*
D03*
Y1270D02*
D03*
Y1016D02*
D03*
Y762D02*
D03*
Y508D02*
D03*
Y254D02*
D03*
Y0D02*
D03*
Y-254D02*
D03*
Y-508D02*
D03*
Y-762D02*
D03*
Y-1016D02*
D03*
Y-1270D02*
D03*
Y-1524D02*
D03*
Y-1778D02*
D03*
X-762D02*
D03*
Y-1524D02*
D03*
Y-1270D02*
D03*
Y-1016D02*
D03*
Y-762D02*
D03*
Y-508D02*
D03*
Y-254D02*
D03*
Y0D02*
D03*
Y254D02*
D03*
Y508D02*
D03*
Y762D02*
D03*
Y1016D02*
D03*
Y1270D02*
D03*
Y1524D02*
D03*
X-508Y-254D02*
D03*
X508D02*
D03*
Y-508D02*
D03*
X-508D02*
D03*
Y-762D02*
D03*
X508D02*
D03*
Y-1016D02*
D03*
X-508D02*
D03*
Y-1270D02*
D03*
X508D02*
D03*
Y-1524D02*
D03*
X-508D02*
D03*
Y-1778D02*
D03*
X508D02*
D03*
Y508D02*
D03*
X-508D02*
D03*
X508Y0D02*
D03*
X-508D02*
D03*
Y254D02*
D03*
X508D02*
D03*
D21*
X-762Y1778D02*
D03*
D22*
X1274Y500D02*
D03*
X1774D02*
D03*
X1524Y-500D02*
D03*
M02*
